<mxfile host="65bd71144e" pages="3">
    <diagram name="Page-1" id="Ur3797hBviaDeyJzC1kE">
        <mxGraphModel dx="694" dy="800" grid="1" gridSize="10" guides="1" tooltips="1" connect="1" arrows="1" fold="1" page="0" pageScale="1" pageWidth="827" pageHeight="1169" math="0" shadow="0">
            <root>
                <mxCell id="0"/>
                <mxCell id="1" parent="0"/>
                <mxCell id="ELU-3NMTZ94u4uMhKzEl-1" value="Text" style="text;strokeColor=none;fillColor=none;html=1;align=center;verticalAlign=middle;whiteSpace=wrap;rounded=0;fontSize=16;glass=0;" parent="1" vertex="1">
                    <mxGeometry y="-600" width="410" height="59" as="geometry"/>
                </mxCell>
                <mxCell id="ELU-3NMTZ94u4uMhKzEl-2" value="" style="rounded=0;whiteSpace=wrap;html=1;movable=0;resizable=0;rotatable=0;deletable=0;editable=0;locked=1;connectable=0;" parent="1" vertex="1">
                    <mxGeometry y="-600" width="410" height="920" as="geometry"/>
                </mxCell>
                <mxCell id="ELU-3NMTZ94u4uMhKzEl-4" value="" style="rounded=0;whiteSpace=wrap;html=1;" parent="1" vertex="1">
                    <mxGeometry y="-601" width="410" height="60" as="geometry"/>
                </mxCell>
                <mxCell id="ELU-3NMTZ94u4uMhKzEl-5" value="" style="rounded=0;whiteSpace=wrap;html=1;" parent="1" vertex="1">
                    <mxGeometry y="-586.5" width="410" height="60" as="geometry"/>
                </mxCell>
                <mxCell id="ELU-3NMTZ94u4uMhKzEl-6" value="" style="rounded=0;whiteSpace=wrap;html=1;" parent="1" vertex="1">
                    <mxGeometry y="260" width="410" height="60" as="geometry"/>
                </mxCell>
                <mxCell id="ELU-3NMTZ94u4uMhKzEl-7" value="Samsung Galaxy&lt;div&gt;&lt;br&gt;&lt;/div&gt;&lt;div&gt;412 x 915&lt;/div&gt;" style="text;html=1;align=center;verticalAlign=middle;whiteSpace=wrap;rounded=0;" parent="1" vertex="1">
                    <mxGeometry x="-150" y="-571" width="60" height="30" as="geometry"/>
                </mxCell>
                <mxCell id="ELU-3NMTZ94u4uMhKzEl-11" value="" style="group" parent="1" vertex="1" connectable="0">
                    <mxGeometry y="-586.5" width="60" height="60" as="geometry"/>
                </mxCell>
                <mxCell id="ELU-3NMTZ94u4uMhKzEl-9" value="" style="verticalLabelPosition=bottom;verticalAlign=top;html=1;shape=mxgraph.basic.rect;fillColor2=none;strokeWidth=1;size=20;indent=5;" parent="ELU-3NMTZ94u4uMhKzEl-11" vertex="1">
                    <mxGeometry width="60" height="60" as="geometry"/>
                </mxCell>
                <mxCell id="ELU-3NMTZ94u4uMhKzEl-10" value="Logo" style="text;html=1;align=center;verticalAlign=middle;whiteSpace=wrap;rounded=0;" parent="ELU-3NMTZ94u4uMhKzEl-11" vertex="1">
                    <mxGeometry y="15" width="60" height="30" as="geometry"/>
                </mxCell>
                <mxCell id="ELU-3NMTZ94u4uMhKzEl-12" value="" style="group" parent="1" vertex="1" connectable="0">
                    <mxGeometry x="350" y="-587.5" width="60" height="60" as="geometry"/>
                </mxCell>
                <mxCell id="ELU-3NMTZ94u4uMhKzEl-13" value="" style="verticalLabelPosition=bottom;verticalAlign=top;html=1;shape=mxgraph.basic.rect;fillColor2=none;strokeWidth=1;size=20;indent=5;" parent="ELU-3NMTZ94u4uMhKzEl-12" vertex="1">
                    <mxGeometry width="60" height="60" as="geometry"/>
                </mxCell>
                <mxCell id="ELU-3NMTZ94u4uMhKzEl-14" value="Menu" style="text;html=1;align=center;verticalAlign=middle;whiteSpace=wrap;rounded=0;" parent="ELU-3NMTZ94u4uMhKzEl-12" vertex="1">
                    <mxGeometry y="10" width="60" height="35" as="geometry"/>
                </mxCell>
                <mxCell id="ELU-3NMTZ94u4uMhKzEl-18" value="" style="rounded=0;whiteSpace=wrap;html=1;" parent="1" vertex="1">
                    <mxGeometry x="10" y="-490" width="390" height="160" as="geometry"/>
                </mxCell>
                <mxCell id="ELU-3NMTZ94u4uMhKzEl-15" value="Title" style="text;strokeColor=none;fillColor=none;html=1;fontSize=24;fontStyle=1;verticalAlign=middle;align=center;" parent="1" vertex="1">
                    <mxGeometry x="410" y="-410" width="100" height="40" as="geometry"/>
                </mxCell>
                <mxCell id="ELU-3NMTZ94u4uMhKzEl-16" value="&lt;div&gt;&amp;lt;header&amp;gt;&lt;/div&gt;&lt;div&gt;&amp;lt;nav&amp;gt;&lt;/div&gt;&lt;div&gt;&amp;lt;&lt;/div&gt;&lt;div&gt;&amp;lt;/header?&lt;/div&gt;" style="text;html=1;align=center;verticalAlign=middle;whiteSpace=wrap;rounded=0;" parent="1" vertex="1">
                    <mxGeometry x="50" y="-570.5" width="290" height="30" as="geometry"/>
                </mxCell>
                <mxCell id="ELU-3NMTZ94u4uMhKzEl-23" value="&lt;h1 style=&quot;margin-top: 0px;&quot;&gt;Heading&lt;/h1&gt;&lt;p&gt;Lorem ipsum dolor sit amet, consectetur adipisicing elit, sed do eiusmod tempor incididunt ut labore et dolore magna aliqua.&amp;nbsp;&lt;span style=&quot;background-color: initial;&quot;&gt;Lorem ipsum dolor sit amet, consectetur adipisicing elit, sed do eiusmod tempor incididunt ut labore et dolore magna aliqua.&lt;/span&gt;&lt;span style=&quot;background-color: initial;&quot;&gt;Lorem ipsum dolor sit amet, consectetur adipisicing elit, sed do eiusmod tempor incididunt ut labore et dolore magna aliqua.&lt;/span&gt;&lt;/p&gt;" style="text;html=1;whiteSpace=wrap;overflow=hidden;rounded=0;" parent="1" vertex="1">
                    <mxGeometry x="20" y="-470" width="370" height="120" as="geometry"/>
                </mxCell>
                <mxCell id="ELU-3NMTZ94u4uMhKzEl-24" value="&amp;lt;div class= &quot;about&quot;" style="text;html=1;align=center;verticalAlign=middle;whiteSpace=wrap;rounded=0;" parent="1" vertex="1">
                    <mxGeometry x="10" y="-490" width="130" height="30" as="geometry"/>
                </mxCell>
                <mxCell id="ELU-3NMTZ94u4uMhKzEl-26" value="&amp;lt;Section&amp;gt; About Us&amp;nbsp;" style="text;html=1;align=center;verticalAlign=middle;whiteSpace=wrap;rounded=0;" parent="1" vertex="1">
                    <mxGeometry x="140" y="-526.5" width="150" height="30" as="geometry"/>
                </mxCell>
                <mxCell id="ELU-3NMTZ94u4uMhKzEl-38" value="" style="group" parent="1" vertex="1" connectable="0">
                    <mxGeometry x="570" y="-290" width="390" height="160" as="geometry"/>
                </mxCell>
                <mxCell id="ELU-3NMTZ94u4uMhKzEl-28" value="" style="rounded=0;whiteSpace=wrap;html=1;" parent="ELU-3NMTZ94u4uMhKzEl-38" vertex="1">
                    <mxGeometry x="10" y="10" width="180" height="140" as="geometry"/>
                </mxCell>
                <mxCell id="ELU-3NMTZ94u4uMhKzEl-30" value="&lt;div&gt;&amp;lt;h3&amp;gt;&lt;/div&gt;&amp;lt;p&amp;gt;" style="text;html=1;align=center;verticalAlign=middle;whiteSpace=wrap;rounded=0;" parent="ELU-3NMTZ94u4uMhKzEl-38" vertex="1">
                    <mxGeometry x="70" y="60" width="60" height="30" as="geometry"/>
                </mxCell>
                <mxCell id="ELU-3NMTZ94u4uMhKzEl-39" value="" style="group" parent="1" vertex="1" connectable="0">
                    <mxGeometry x="10" y="-150" width="390" height="160" as="geometry"/>
                </mxCell>
                <mxCell id="ELU-3NMTZ94u4uMhKzEl-40" value="" style="rounded=0;whiteSpace=wrap;html=1;" parent="ELU-3NMTZ94u4uMhKzEl-39" vertex="1">
                    <mxGeometry width="390" height="160" as="geometry"/>
                </mxCell>
                <mxCell id="ELU-3NMTZ94u4uMhKzEl-41" value="" style="rounded=0;whiteSpace=wrap;html=1;" parent="ELU-3NMTZ94u4uMhKzEl-39" vertex="1">
                    <mxGeometry x="10" y="10" width="180" height="140" as="geometry"/>
                </mxCell>
                <mxCell id="ELU-3NMTZ94u4uMhKzEl-42" value="" style="rounded=0;whiteSpace=wrap;html=1;" parent="ELU-3NMTZ94u4uMhKzEl-39" vertex="1">
                    <mxGeometry x="200" y="10" width="180" height="140" as="geometry"/>
                </mxCell>
                <mxCell id="ELU-3NMTZ94u4uMhKzEl-43" value="&lt;div&gt;&amp;lt;h3 id=&quot;eligibility&amp;gt;&lt;/div&gt;" style="text;html=1;align=center;verticalAlign=middle;whiteSpace=wrap;rounded=0;" parent="ELU-3NMTZ94u4uMhKzEl-39" vertex="1">
                    <mxGeometry x="230" y="40" width="110" height="30" as="geometry"/>
                </mxCell>
                <mxCell id="ELU-3NMTZ94u4uMhKzEl-44" value="&amp;lt;img&amp;gt;" style="text;html=1;align=center;verticalAlign=middle;whiteSpace=wrap;rounded=0;" parent="ELU-3NMTZ94u4uMhKzEl-39" vertex="1">
                    <mxGeometry x="70" y="60" width="60" height="30" as="geometry"/>
                </mxCell>
                <mxCell id="ELU-3NMTZ94u4uMhKzEl-88" value="&lt;ul&gt;&lt;li&gt;Value 1&lt;/li&gt;&lt;li&gt;Value 2&lt;/li&gt;&lt;li&gt;Value 3&lt;/li&gt;&lt;/ul&gt;" style="text;strokeColor=none;fillColor=none;html=1;whiteSpace=wrap;verticalAlign=middle;overflow=hidden;" parent="ELU-3NMTZ94u4uMhKzEl-39" vertex="1">
                    <mxGeometry x="230" y="60" width="100" height="80" as="geometry"/>
                </mxCell>
                <mxCell id="ELU-3NMTZ94u4uMhKzEl-45" value="" style="group" parent="1" vertex="1" connectable="0">
                    <mxGeometry x="10" y="20" width="390" height="160" as="geometry"/>
                </mxCell>
                <mxCell id="ELU-3NMTZ94u4uMhKzEl-46" value="" style="rounded=0;whiteSpace=wrap;html=1;" parent="ELU-3NMTZ94u4uMhKzEl-45" vertex="1">
                    <mxGeometry width="390" height="160" as="geometry"/>
                </mxCell>
                <mxCell id="ELU-3NMTZ94u4uMhKzEl-47" value="" style="rounded=0;whiteSpace=wrap;html=1;" parent="ELU-3NMTZ94u4uMhKzEl-45" vertex="1">
                    <mxGeometry x="10" y="10" width="180" height="140" as="geometry"/>
                </mxCell>
                <mxCell id="ELU-3NMTZ94u4uMhKzEl-48" value="" style="rounded=0;whiteSpace=wrap;html=1;" parent="ELU-3NMTZ94u4uMhKzEl-45" vertex="1">
                    <mxGeometry x="200" y="10" width="180" height="140" as="geometry"/>
                </mxCell>
                <mxCell id="ELU-3NMTZ94u4uMhKzEl-49" value="&lt;div&gt;&amp;lt;h3 id=&quot;barnsley2039&quot;&amp;gt;&lt;/div&gt;&amp;lt;p&amp;gt;" style="text;html=1;align=center;verticalAlign=middle;whiteSpace=wrap;rounded=0;" parent="ELU-3NMTZ94u4uMhKzEl-45" vertex="1">
                    <mxGeometry x="20" y="60" width="160" height="30" as="geometry"/>
                </mxCell>
                <mxCell id="ELU-3NMTZ94u4uMhKzEl-50" value="&amp;lt;img=&quot;possibilities&amp;gt;" style="text;html=1;align=center;verticalAlign=middle;whiteSpace=wrap;rounded=0;" parent="ELU-3NMTZ94u4uMhKzEl-45" vertex="1">
                    <mxGeometry x="260" y="60" width="60" height="30" as="geometry"/>
                </mxCell>
                <UserObject label="Link" link="https://www.barnsley.gov.uk/services/our-council/barnsley-2030/" linkTarget="_blank" id="ELU-3NMTZ94u4uMhKzEl-91">
                    <mxCell style="text;html=1;strokeColor=none;fillColor=none;whiteSpace=wrap;align=center;verticalAlign=middle;fontColor=#0000EE;fontStyle=4;" parent="ELU-3NMTZ94u4uMhKzEl-45" vertex="1">
                        <mxGeometry x="70" y="90" width="60" height="40" as="geometry"/>
                    </mxCell>
                </UserObject>
                <mxCell id="ELU-3NMTZ94u4uMhKzEl-27" value="" style="rounded=0;whiteSpace=wrap;html=1;container=0;movable=1;resizable=1;rotatable=1;deletable=1;editable=1;locked=0;connectable=1;" parent="1" vertex="1">
                    <mxGeometry x="6.75" y="-325" width="396.5" height="125" as="geometry"/>
                </mxCell>
                <mxCell id="ELU-3NMTZ94u4uMhKzEl-62" value="&amp;lt;div class=container&amp;gt;" style="text;html=1;align=center;verticalAlign=middle;whiteSpace=wrap;rounded=0;" parent="1" vertex="1">
                    <mxGeometry x="-20" y="-325" width="190" height="30" as="geometry"/>
                </mxCell>
                <mxCell id="ELU-3NMTZ94u4uMhKzEl-78" value="" style="group" parent="1" vertex="1" connectable="0">
                    <mxGeometry x="278.9508510638298" y="-295" width="145.28959810874704" height="90" as="geometry"/>
                </mxCell>
                <mxCell id="ELU-3NMTZ94u4uMhKzEl-79" value="" style="rounded=0;whiteSpace=wrap;html=1;" parent="ELU-3NMTZ94u4uMhKzEl-78" vertex="1">
                    <mxGeometry width="112.48226950354609" height="77.14285714285715" as="geometry"/>
                </mxCell>
                <mxCell id="ELU-3NMTZ94u4uMhKzEl-80" value="&amp;lt;img class=&quot;logo&quot;&amp;gt;" style="text;html=1;align=center;verticalAlign=middle;whiteSpace=wrap;rounded=0;" parent="ELU-3NMTZ94u4uMhKzEl-78" vertex="1">
                    <mxGeometry y="27.32" width="112.48226950354609" height="45" as="geometry"/>
                </mxCell>
                <mxCell id="ELU-3NMTZ94u4uMhKzEl-82" value="&amp;lt;div class=logo&lt;span style=&quot;background-color: initial;&quot;&gt;&amp;gt;&amp;nbsp;&lt;/span&gt;&lt;div&gt;&lt;span style=&quot;background-color: initial;&quot;&gt;flex:display???&lt;/span&gt;&lt;/div&gt;" style="text;html=1;align=center;verticalAlign=middle;whiteSpace=wrap;rounded=0;" parent="ELU-3NMTZ94u4uMhKzEl-78" vertex="1">
                    <mxGeometry x="-32.807328605200944" y="-2.680000000000007" width="178.096926713948" height="30" as="geometry"/>
                </mxCell>
                <mxCell id="ELU-3NMTZ94u4uMhKzEl-83" value="&amp;lt;h3&amp;gt; company" style="text;html=1;align=center;verticalAlign=middle;whiteSpace=wrap;rounded=0;" parent="ELU-3NMTZ94u4uMhKzEl-78" vertex="1">
                    <mxGeometry y="17.5" width="112.48226950354609" height="38.57142857142858" as="geometry"/>
                </mxCell>
                <UserObject label="Link" link="https://www.barnsley.gov.uk" linkTarget="_blank" id="ELU-3NMTZ94u4uMhKzEl-61">
                    <mxCell style="text;html=1;strokeColor=none;fillColor=none;whiteSpace=wrap;align=center;verticalAlign=middle;fontColor=#0000EE;fontStyle=4;" parent="ELU-3NMTZ94u4uMhKzEl-78" vertex="1">
                        <mxGeometry x="28.120567375886523" y="40" width="56.241134751773046" height="40" as="geometry"/>
                    </mxCell>
                </UserObject>
                <mxCell id="ELU-3NMTZ94u4uMhKzEl-87" value="" style="group" parent="1" vertex="1" connectable="0">
                    <mxGeometry x="115.95052009456265" y="-297.68" width="178.096926713948" height="87.68" as="geometry"/>
                </mxCell>
                <mxCell id="ELU-3NMTZ94u4uMhKzEl-73" value="" style="rounded=0;whiteSpace=wrap;html=1;" parent="ELU-3NMTZ94u4uMhKzEl-87" vertex="1">
                    <mxGeometry x="32.80732860520095" y="2.680000000000007" width="112.4822695035461" height="77.14285714285715" as="geometry"/>
                </mxCell>
                <mxCell id="ELU-3NMTZ94u4uMhKzEl-74" value="&amp;lt;img class=&quot;logo&quot;&amp;gt;" style="text;html=1;align=center;verticalAlign=middle;whiteSpace=wrap;rounded=0;" parent="ELU-3NMTZ94u4uMhKzEl-87" vertex="1">
                    <mxGeometry x="32.80732860520095" y="30.000000000000007" width="112.4822695035461" height="45" as="geometry"/>
                </mxCell>
                <mxCell id="ELU-3NMTZ94u4uMhKzEl-76" value="&amp;lt;div class=logo&lt;span style=&quot;background-color: initial;&quot;&gt;&amp;gt;&amp;nbsp;&lt;/span&gt;&lt;div&gt;&lt;span style=&quot;background-color: initial;&quot;&gt;flex:display???&lt;/span&gt;&lt;/div&gt;" style="text;html=1;align=center;verticalAlign=middle;whiteSpace=wrap;rounded=0;" parent="ELU-3NMTZ94u4uMhKzEl-87" vertex="1">
                    <mxGeometry width="178.096926713948" height="30" as="geometry"/>
                </mxCell>
                <mxCell id="ELU-3NMTZ94u4uMhKzEl-77" value="&amp;lt;h3&amp;gt; company" style="text;html=1;align=center;verticalAlign=middle;whiteSpace=wrap;rounded=0;" parent="ELU-3NMTZ94u4uMhKzEl-87" vertex="1">
                    <mxGeometry x="32.80732860520095" y="20.180000000000007" width="112.4822695035461" height="38.57142857142858" as="geometry"/>
                </mxCell>
                <UserObject label="Link" link="https://www.berneslaihomes.co.uk/" linkTarget="_blank" id="ELU-3NMTZ94u4uMhKzEl-60">
                    <mxCell style="text;html=1;strokeColor=none;fillColor=none;whiteSpace=wrap;align=center;verticalAlign=middle;fontColor=#0000EE;fontStyle=4;" parent="ELU-3NMTZ94u4uMhKzEl-87" vertex="1">
                        <mxGeometry x="60.927895981087474" y="47.68000000000001" width="56.24113475177305" height="40" as="geometry"/>
                    </mxCell>
                </UserObject>
                <mxCell id="ELU-3NMTZ94u4uMhKzEl-29" value="" style="rounded=0;whiteSpace=wrap;html=1;" parent="1" vertex="1">
                    <mxGeometry x="14.248817966903072" y="-295" width="112.48226950354609" height="77.14285714285715" as="geometry"/>
                </mxCell>
                <mxCell id="ELU-3NMTZ94u4uMhKzEl-31" value="&amp;lt;img class=&quot;logo&quot;&amp;gt;" style="text;html=1;align=center;verticalAlign=middle;whiteSpace=wrap;rounded=0;" parent="1" vertex="1">
                    <mxGeometry x="14.248817966903072" y="-267.68" width="112.48226950354609" height="45" as="geometry"/>
                </mxCell>
                <UserObject label="Link" link="https://www.wates.co.uk/insights/wates-group/culture/introducing-our-new-purpose/" linkTarget="_blank" id="ELU-3NMTZ94u4uMhKzEl-59">
                    <mxCell style="text;html=1;strokeColor=none;fillColor=none;whiteSpace=wrap;align=center;verticalAlign=middle;fontColor=#0000EE;fontStyle=4;" parent="1" vertex="1">
                        <mxGeometry x="42.3693853427896" y="-256.42857142857144" width="56.241134751773046" height="51.42857142857143" as="geometry"/>
                    </mxCell>
                </UserObject>
                <mxCell id="ELU-3NMTZ94u4uMhKzEl-70" value="&amp;lt;div class=logo&lt;span style=&quot;background-color: initial;&quot;&gt;&amp;gt;&amp;nbsp;&lt;/span&gt;&lt;div&gt;&lt;span style=&quot;background-color: initial;&quot;&gt;flex:display???&lt;/span&gt;&lt;/div&gt;" style="text;html=1;align=center;verticalAlign=middle;whiteSpace=wrap;rounded=0;" parent="1" vertex="1">
                    <mxGeometry x="-18.55851063829787" y="-297.68" width="178.096926713948" height="30" as="geometry"/>
                </mxCell>
                <mxCell id="ELU-3NMTZ94u4uMhKzEl-63" value="&amp;lt;h3&amp;gt; company" style="text;html=1;align=center;verticalAlign=middle;whiteSpace=wrap;rounded=0;" parent="1" vertex="1">
                    <mxGeometry x="14.248817966903072" y="-277.5" width="112.48226950354609" height="38.57142857142858" as="geometry"/>
                </mxCell>
                <mxCell id="ELU-3NMTZ94u4uMhKzEl-90" value="&amp;lt;Section&amp;gt; Funding Requirements&amp;nbsp;" style="text;html=1;align=center;verticalAlign=middle;whiteSpace=wrap;rounded=0;" parent="1" vertex="1">
                    <mxGeometry x="130" y="-190" width="150" height="30" as="geometry"/>
                </mxCell>
                <mxCell id="aCID42fe9a1ZSVelGjBb-1" value="Copyright, accessibility, cookies, privacy, contact us, modern slavery" style="text;html=1;align=center;verticalAlign=middle;whiteSpace=wrap;rounded=0;" parent="1" vertex="1">
                    <mxGeometry x="20" y="275" width="360" height="30" as="geometry"/>
                </mxCell>
                <mxCell id="aCID42fe9a1ZSVelGjBb-2" value="" style="rounded=0;whiteSpace=wrap;html=1;" parent="1" vertex="1">
                    <mxGeometry x="15" y="190" width="120" height="60" as="geometry"/>
                </mxCell>
                <mxCell id="aCID42fe9a1ZSVelGjBb-3" value="" style="rounded=0;whiteSpace=wrap;html=1;" parent="1" vertex="1">
                    <mxGeometry x="145" y="190" width="120" height="60" as="geometry"/>
                </mxCell>
                <mxCell id="aCID42fe9a1ZSVelGjBb-4" value="" style="rounded=0;whiteSpace=wrap;html=1;" parent="1" vertex="1">
                    <mxGeometry x="278.95" y="190" width="120" height="60" as="geometry"/>
                </mxCell>
                <mxCell id="aCID42fe9a1ZSVelGjBb-5" value="Socials" style="text;html=1;align=center;verticalAlign=middle;whiteSpace=wrap;rounded=0;" parent="1" vertex="1">
                    <mxGeometry x="45" y="205" width="60" height="30" as="geometry"/>
                </mxCell>
                <mxCell id="aCID42fe9a1ZSVelGjBb-7" value="Socials" style="text;html=1;align=center;verticalAlign=middle;whiteSpace=wrap;rounded=0;" parent="1" vertex="1">
                    <mxGeometry x="175" y="205" width="60" height="30" as="geometry"/>
                </mxCell>
                <mxCell id="aCID42fe9a1ZSVelGjBb-8" value="Socials" style="text;html=1;align=center;verticalAlign=middle;whiteSpace=wrap;rounded=0;" parent="1" vertex="1">
                    <mxGeometry x="308.95" y="205" width="60" height="30" as="geometry"/>
                </mxCell>
            </root>
        </mxGraphModel>
    </diagram>
    <diagram id="zvwVSyaTnt8daKrOqtdN" name="Page-2">
        <mxGraphModel dx="764" dy="1624" grid="1" gridSize="10" guides="1" tooltips="1" connect="1" arrows="1" fold="1" page="1" pageScale="1" pageWidth="827" pageHeight="1169" math="0" shadow="0">
            <root>
                <mxCell id="0"/>
                <mxCell id="1" parent="0"/>
                <mxCell id="aaP7RK3vRE9qcPhfIbQq-1" value="" style="rounded=0;whiteSpace=wrap;html=1;movable=1;resizable=1;rotatable=1;deletable=1;editable=1;locked=0;connectable=1;" vertex="1" parent="1">
                    <mxGeometry y="-600" width="410" height="920" as="geometry"/>
                </mxCell>
                <mxCell id="LZW7KcNhHTHwKCVLHUJ1-1" value="" style="rounded=0;whiteSpace=wrap;html=1;" vertex="1" parent="1">
                    <mxGeometry y="-586.5" width="410" height="60" as="geometry"/>
                </mxCell>
                <mxCell id="LZW7KcNhHTHwKCVLHUJ1-2" value="" style="verticalLabelPosition=bottom;verticalAlign=top;html=1;shape=mxgraph.basic.rect;fillColor2=none;strokeWidth=1;size=20;indent=5;" vertex="1" parent="1">
                    <mxGeometry y="-586.5" width="60" height="60" as="geometry"/>
                </mxCell>
                <mxCell id="LZW7KcNhHTHwKCVLHUJ1-3" value="Logo" style="text;html=1;align=center;verticalAlign=middle;whiteSpace=wrap;rounded=0;" vertex="1" parent="1">
                    <mxGeometry y="-571.5" width="60" height="30" as="geometry"/>
                </mxCell>
                <mxCell id="LZW7KcNhHTHwKCVLHUJ1-4" value="" style="group" vertex="1" connectable="0" parent="1">
                    <mxGeometry x="350" y="-587.5" width="60" height="60" as="geometry"/>
                </mxCell>
                <mxCell id="LZW7KcNhHTHwKCVLHUJ1-5" value="" style="verticalLabelPosition=bottom;verticalAlign=top;html=1;shape=mxgraph.basic.rect;fillColor2=none;strokeWidth=1;size=20;indent=5;" vertex="1" parent="LZW7KcNhHTHwKCVLHUJ1-4">
                    <mxGeometry width="60" height="60" as="geometry"/>
                </mxCell>
                <mxCell id="LZW7KcNhHTHwKCVLHUJ1-6" value="Menu" style="text;html=1;align=center;verticalAlign=middle;whiteSpace=wrap;rounded=0;" vertex="1" parent="LZW7KcNhHTHwKCVLHUJ1-4">
                    <mxGeometry y="10" width="60" height="35" as="geometry"/>
                </mxCell>
                <mxCell id="e6_xIl90fWu42nZ8HRkI-1" value="" style="rounded=0;whiteSpace=wrap;html=1;" vertex="1" parent="1">
                    <mxGeometry y="260" width="410" height="60" as="geometry"/>
                </mxCell>
                <mxCell id="e6_xIl90fWu42nZ8HRkI-2" value="Copyright, accessibility, cookies, privacy, contact us, modern slavery" style="text;html=1;align=center;verticalAlign=middle;whiteSpace=wrap;rounded=0;" vertex="1" parent="1">
                    <mxGeometry x="20" y="275" width="360" height="30" as="geometry"/>
                </mxCell>
                <mxCell id="e6_xIl90fWu42nZ8HRkI-3" value="" style="rounded=0;whiteSpace=wrap;html=1;" vertex="1" parent="1">
                    <mxGeometry x="15" y="190" width="120" height="60" as="geometry"/>
                </mxCell>
                <mxCell id="e6_xIl90fWu42nZ8HRkI-4" value="" style="rounded=0;whiteSpace=wrap;html=1;" vertex="1" parent="1">
                    <mxGeometry x="145" y="190" width="120" height="60" as="geometry"/>
                </mxCell>
                <mxCell id="e6_xIl90fWu42nZ8HRkI-5" value="" style="rounded=0;whiteSpace=wrap;html=1;" vertex="1" parent="1">
                    <mxGeometry x="278.95" y="190" width="120" height="60" as="geometry"/>
                </mxCell>
                <mxCell id="e6_xIl90fWu42nZ8HRkI-6" value="Socials" style="text;html=1;align=center;verticalAlign=middle;whiteSpace=wrap;rounded=0;" vertex="1" parent="1">
                    <mxGeometry x="45" y="205" width="60" height="30" as="geometry"/>
                </mxCell>
                <mxCell id="e6_xIl90fWu42nZ8HRkI-7" value="Socials" style="text;html=1;align=center;verticalAlign=middle;whiteSpace=wrap;rounded=0;" vertex="1" parent="1">
                    <mxGeometry x="175" y="205" width="60" height="30" as="geometry"/>
                </mxCell>
                <mxCell id="e6_xIl90fWu42nZ8HRkI-8" value="Socials" style="text;html=1;align=center;verticalAlign=middle;whiteSpace=wrap;rounded=0;" vertex="1" parent="1">
                    <mxGeometry x="308.95" y="205" width="60" height="30" as="geometry"/>
                </mxCell>
                <mxCell id="e6_xIl90fWu42nZ8HRkI-9" value="" style="rounded=0;whiteSpace=wrap;html=1;" vertex="1" parent="1">
                    <mxGeometry x="10" y="-520" width="390" height="690" as="geometry"/>
                </mxCell>
                <mxCell id="e6_xIl90fWu42nZ8HRkI-10" value="flex box gallery" style="text;html=1;align=center;verticalAlign=middle;whiteSpace=wrap;rounded=0;" vertex="1" parent="1">
                    <mxGeometry x="20" y="-500" width="60" height="30" as="geometry"/>
                </mxCell>
            </root>
        </mxGraphModel>
    </diagram>
    <diagram name="Page-3" id="Cri1dkzUm9s3WJXUu1gP">
        <mxGraphModel dx="764" dy="1624" grid="1" gridSize="10" guides="1" tooltips="1" connect="1" arrows="1" fold="1" page="1" pageScale="1" pageWidth="827" pageHeight="1169" math="0" shadow="0">
            <root>
                <mxCell id="9EMLMFGV6BXFYOFSq8Wl-0"/>
                <mxCell id="9EMLMFGV6BXFYOFSq8Wl-1" parent="9EMLMFGV6BXFYOFSq8Wl-0"/>
                <mxCell id="9EMLMFGV6BXFYOFSq8Wl-2" value="" style="rounded=0;whiteSpace=wrap;html=1;movable=1;resizable=1;rotatable=1;deletable=1;editable=1;locked=0;connectable=1;" vertex="1" parent="9EMLMFGV6BXFYOFSq8Wl-1">
                    <mxGeometry y="-600" width="410" height="920" as="geometry"/>
                </mxCell>
                <mxCell id="9EMLMFGV6BXFYOFSq8Wl-3" value="" style="rounded=0;whiteSpace=wrap;html=1;" vertex="1" parent="9EMLMFGV6BXFYOFSq8Wl-1">
                    <mxGeometry y="-586.5" width="410" height="60" as="geometry"/>
                </mxCell>
                <mxCell id="9EMLMFGV6BXFYOFSq8Wl-4" value="" style="verticalLabelPosition=bottom;verticalAlign=top;html=1;shape=mxgraph.basic.rect;fillColor2=none;strokeWidth=1;size=20;indent=5;" vertex="1" parent="9EMLMFGV6BXFYOFSq8Wl-1">
                    <mxGeometry y="-586.5" width="60" height="60" as="geometry"/>
                </mxCell>
                <mxCell id="9EMLMFGV6BXFYOFSq8Wl-5" value="Logo" style="text;html=1;align=center;verticalAlign=middle;whiteSpace=wrap;rounded=0;" vertex="1" parent="9EMLMFGV6BXFYOFSq8Wl-1">
                    <mxGeometry y="-571.5" width="60" height="30" as="geometry"/>
                </mxCell>
                <mxCell id="9EMLMFGV6BXFYOFSq8Wl-6" value="" style="group" vertex="1" connectable="0" parent="9EMLMFGV6BXFYOFSq8Wl-1">
                    <mxGeometry x="350" y="-587.5" width="60" height="60" as="geometry"/>
                </mxCell>
                <mxCell id="9EMLMFGV6BXFYOFSq8Wl-7" value="" style="verticalLabelPosition=bottom;verticalAlign=top;html=1;shape=mxgraph.basic.rect;fillColor2=none;strokeWidth=1;size=20;indent=5;" vertex="1" parent="9EMLMFGV6BXFYOFSq8Wl-6">
                    <mxGeometry width="60" height="60" as="geometry"/>
                </mxCell>
                <mxCell id="9EMLMFGV6BXFYOFSq8Wl-8" value="Menu" style="text;html=1;align=center;verticalAlign=middle;whiteSpace=wrap;rounded=0;" vertex="1" parent="9EMLMFGV6BXFYOFSq8Wl-6">
                    <mxGeometry y="10" width="60" height="35" as="geometry"/>
                </mxCell>
                <mxCell id="9EMLMFGV6BXFYOFSq8Wl-9" value="" style="rounded=0;whiteSpace=wrap;html=1;" vertex="1" parent="9EMLMFGV6BXFYOFSq8Wl-1">
                    <mxGeometry y="260" width="410" height="60" as="geometry"/>
                </mxCell>
                <mxCell id="9EMLMFGV6BXFYOFSq8Wl-10" value="Copyright, accessibility, cookies, privacy, contact us, modern slavery" style="text;html=1;align=center;verticalAlign=middle;whiteSpace=wrap;rounded=0;" vertex="1" parent="9EMLMFGV6BXFYOFSq8Wl-1">
                    <mxGeometry x="20" y="275" width="360" height="30" as="geometry"/>
                </mxCell>
                <mxCell id="9EMLMFGV6BXFYOFSq8Wl-11" value="" style="rounded=0;whiteSpace=wrap;html=1;" vertex="1" parent="9EMLMFGV6BXFYOFSq8Wl-1">
                    <mxGeometry x="15" y="190" width="120" height="60" as="geometry"/>
                </mxCell>
                <mxCell id="9EMLMFGV6BXFYOFSq8Wl-12" value="" style="rounded=0;whiteSpace=wrap;html=1;" vertex="1" parent="9EMLMFGV6BXFYOFSq8Wl-1">
                    <mxGeometry x="145" y="190" width="120" height="60" as="geometry"/>
                </mxCell>
                <mxCell id="9EMLMFGV6BXFYOFSq8Wl-13" value="" style="rounded=0;whiteSpace=wrap;html=1;" vertex="1" parent="9EMLMFGV6BXFYOFSq8Wl-1">
                    <mxGeometry x="278.95" y="190" width="120" height="60" as="geometry"/>
                </mxCell>
                <mxCell id="9EMLMFGV6BXFYOFSq8Wl-14" value="Socials" style="text;html=1;align=center;verticalAlign=middle;whiteSpace=wrap;rounded=0;" vertex="1" parent="9EMLMFGV6BXFYOFSq8Wl-1">
                    <mxGeometry x="45" y="205" width="60" height="30" as="geometry"/>
                </mxCell>
                <mxCell id="9EMLMFGV6BXFYOFSq8Wl-15" value="Socials" style="text;html=1;align=center;verticalAlign=middle;whiteSpace=wrap;rounded=0;" vertex="1" parent="9EMLMFGV6BXFYOFSq8Wl-1">
                    <mxGeometry x="175" y="205" width="60" height="30" as="geometry"/>
                </mxCell>
                <mxCell id="9EMLMFGV6BXFYOFSq8Wl-16" value="Socials" style="text;html=1;align=center;verticalAlign=middle;whiteSpace=wrap;rounded=0;" vertex="1" parent="9EMLMFGV6BXFYOFSq8Wl-1">
                    <mxGeometry x="308.95" y="205" width="60" height="30" as="geometry"/>
                </mxCell>
                <mxCell id="9EMLMFGV6BXFYOFSq8Wl-17" value="" style="rounded=0;whiteSpace=wrap;html=1;" vertex="1" parent="9EMLMFGV6BXFYOFSq8Wl-1">
                    <mxGeometry x="10" y="-526.5" width="390" height="690" as="geometry"/>
                </mxCell>
                <mxCell id="9EMLMFGV6BXFYOFSq8Wl-18" value="flex box gallery" style="text;html=1;align=center;verticalAlign=middle;whiteSpace=wrap;rounded=0;" vertex="1" parent="9EMLMFGV6BXFYOFSq8Wl-1">
                    <mxGeometry x="20" y="-500" width="60" height="30" as="geometry"/>
                </mxCell>
                <mxCell id="gRk3VgxQ1Z1zPodt_rE5-1" value="" style="rounded=0;whiteSpace=wrap;html=1;" vertex="1" parent="9EMLMFGV6BXFYOFSq8Wl-1">
                    <mxGeometry x="20" y="-500" width="250" height="450" as="geometry"/>
                </mxCell>
                <mxCell id="gRk3VgxQ1Z1zPodt_rE5-3" value="" style="rounded=1;whiteSpace=wrap;html=1;" vertex="1" parent="9EMLMFGV6BXFYOFSq8Wl-1">
                    <mxGeometry x="45" y="-436" width="195" height="20" as="geometry"/>
                </mxCell>
                <mxCell id="gRk3VgxQ1Z1zPodt_rE5-4" value="Text" style="text;html=1;align=center;verticalAlign=middle;whiteSpace=wrap;rounded=0;" vertex="1" parent="9EMLMFGV6BXFYOFSq8Wl-1">
                    <mxGeometry x="30" y="-460" width="60" height="30" as="geometry"/>
                </mxCell>
                <mxCell id="gRk3VgxQ1Z1zPodt_rE5-5" value="Contact us" style="text;strokeColor=none;fillColor=none;html=1;fontSize=24;fontStyle=1;verticalAlign=middle;align=center;" vertex="1" parent="9EMLMFGV6BXFYOFSq8Wl-1">
                    <mxGeometry x="45" y="-490" width="100" height="40" as="geometry"/>
                </mxCell>
                <mxCell id="gRk3VgxQ1Z1zPodt_rE5-6" value="" style="rounded=1;whiteSpace=wrap;html=1;" vertex="1" parent="9EMLMFGV6BXFYOFSq8Wl-1">
                    <mxGeometry x="45" y="-386" width="195" height="20" as="geometry"/>
                </mxCell>
                <mxCell id="gRk3VgxQ1Z1zPodt_rE5-7" value="Text" style="text;html=1;align=center;verticalAlign=middle;whiteSpace=wrap;rounded=0;" vertex="1" parent="9EMLMFGV6BXFYOFSq8Wl-1">
                    <mxGeometry x="30" y="-410" width="60" height="30" as="geometry"/>
                </mxCell>
                <mxCell id="gRk3VgxQ1Z1zPodt_rE5-8" value="" style="rounded=1;whiteSpace=wrap;html=1;" vertex="1" parent="9EMLMFGV6BXFYOFSq8Wl-1">
                    <mxGeometry x="45" y="-336" width="195" height="20" as="geometry"/>
                </mxCell>
                <mxCell id="gRk3VgxQ1Z1zPodt_rE5-9" value="Text" style="text;html=1;align=center;verticalAlign=middle;whiteSpace=wrap;rounded=0;" vertex="1" parent="9EMLMFGV6BXFYOFSq8Wl-1">
                    <mxGeometry x="30" y="-360" width="60" height="30" as="geometry"/>
                </mxCell>
                <mxCell id="gRk3VgxQ1Z1zPodt_rE5-10" value="" style="rounded=1;whiteSpace=wrap;html=1;" vertex="1" parent="9EMLMFGV6BXFYOFSq8Wl-1">
                    <mxGeometry x="50" y="-286" width="195" height="20" as="geometry"/>
                </mxCell>
                <mxCell id="gRk3VgxQ1Z1zPodt_rE5-11" value="Text" style="text;html=1;align=center;verticalAlign=middle;whiteSpace=wrap;rounded=0;" vertex="1" parent="9EMLMFGV6BXFYOFSq8Wl-1">
                    <mxGeometry x="35" y="-310" width="60" height="30" as="geometry"/>
                </mxCell>
                <mxCell id="gRk3VgxQ1Z1zPodt_rE5-12" value="" style="rounded=1;whiteSpace=wrap;html=1;" vertex="1" parent="9EMLMFGV6BXFYOFSq8Wl-1">
                    <mxGeometry x="45" y="-242" width="195" height="52" as="geometry"/>
                </mxCell>
                <mxCell id="gRk3VgxQ1Z1zPodt_rE5-13" value="Text" style="text;html=1;align=center;verticalAlign=middle;whiteSpace=wrap;rounded=0;" vertex="1" parent="9EMLMFGV6BXFYOFSq8Wl-1">
                    <mxGeometry x="30" y="-266" width="60" height="30" as="geometry"/>
                </mxCell>
                <mxCell id="gRk3VgxQ1Z1zPodt_rE5-14" value="" style="shape=ext;double=1;rounded=1;whiteSpace=wrap;html=1;" vertex="1" parent="9EMLMFGV6BXFYOFSq8Wl-1">
                    <mxGeometry x="60" y="-90" width="180" height="24" as="geometry"/>
                </mxCell>
                <mxCell id="gRk3VgxQ1Z1zPodt_rE5-15" value="Text" style="text;html=1;align=center;verticalAlign=middle;whiteSpace=wrap;rounded=0;" vertex="1" parent="9EMLMFGV6BXFYOFSq8Wl-1">
                    <mxGeometry x="120" y="-93" width="60" height="30" as="geometry"/>
                </mxCell>
                <mxCell id="gRk3VgxQ1Z1zPodt_rE5-16" value="" style="shape=table;startSize=0;container=1;collapsible=0;childLayout=tableLayout;fontSize=11;fillColor=none;strokeColor=none;" vertex="1" parent="9EMLMFGV6BXFYOFSq8Wl-1">
                    <mxGeometry x="85" y="-170" width="60" height="30" as="geometry"/>
                </mxCell>
                <mxCell id="gRk3VgxQ1Z1zPodt_rE5-17" value="" style="shape=tableRow;horizontal=0;startSize=0;swimlaneHead=0;swimlaneBody=0;strokeColor=inherit;top=0;left=0;bottom=0;right=0;collapsible=0;dropTarget=0;fillColor=none;points=[[0,0.5],[1,0.5]];portConstraint=eastwest;fontSize=16;" vertex="1" parent="gRk3VgxQ1Z1zPodt_rE5-16">
                    <mxGeometry width="60" height="15" as="geometry"/>
                </mxCell>
                <mxCell id="gRk3VgxQ1Z1zPodt_rE5-18" value="Item 1" style="shape=partialRectangle;html=1;whiteSpace=wrap;connectable=0;strokeColor=inherit;overflow=hidden;fillColor=none;top=0;left=0;bottom=0;right=0;pointerEvents=1;fontSize=12;align=left;spacingLeft=5;" vertex="1" parent="gRk3VgxQ1Z1zPodt_rE5-17">
                    <mxGeometry width="60" height="15" as="geometry">
                        <mxRectangle width="60" height="15" as="alternateBounds"/>
                    </mxGeometry>
                </mxCell>
                <mxCell id="gRk3VgxQ1Z1zPodt_rE5-19" value="" style="shape=tableRow;horizontal=0;startSize=0;swimlaneHead=0;swimlaneBody=0;strokeColor=inherit;top=0;left=0;bottom=0;right=0;collapsible=0;dropTarget=0;fillColor=none;points=[[0,0.5],[1,0.5]];portConstraint=eastwest;fontSize=16;" vertex="1" parent="gRk3VgxQ1Z1zPodt_rE5-16">
                    <mxGeometry y="15" width="60" height="15" as="geometry"/>
                </mxCell>
                <mxCell id="gRk3VgxQ1Z1zPodt_rE5-20" value="Item 2" style="shape=partialRectangle;html=1;whiteSpace=wrap;connectable=0;strokeColor=inherit;overflow=hidden;fillColor=none;top=0;left=0;bottom=0;right=0;pointerEvents=1;fontSize=12;align=left;spacingLeft=5;" vertex="1" parent="gRk3VgxQ1Z1zPodt_rE5-19">
                    <mxGeometry width="60" height="15" as="geometry">
                        <mxRectangle width="60" height="15" as="alternateBounds"/>
                    </mxGeometry>
                </mxCell>
                <mxCell id="gRk3VgxQ1Z1zPodt_rE5-25" value="" style="whiteSpace=wrap;html=1;aspect=fixed;" vertex="1" parent="9EMLMFGV6BXFYOFSq8Wl-1">
                    <mxGeometry x="75" y="-166" width="10" height="10" as="geometry"/>
                </mxCell>
                <mxCell id="gRk3VgxQ1Z1zPodt_rE5-26" value="" style="whiteSpace=wrap;html=1;aspect=fixed;" vertex="1" parent="9EMLMFGV6BXFYOFSq8Wl-1">
                    <mxGeometry x="75" y="-149" width="10" height="10" as="geometry"/>
                </mxCell>
                <mxCell id="gRk3VgxQ1Z1zPodt_rE5-27" value="&amp;lt;img&amp;gt;" style="text;html=1;align=center;verticalAlign=middle;whiteSpace=wrap;rounded=0;" vertex="1" parent="9EMLMFGV6BXFYOFSq8Wl-1">
                    <mxGeometry x="308.95" y="-386" width="60" height="30" as="geometry"/>
                </mxCell>
            </root>
        </mxGraphModel>
    </diagram>
</mxfile>